<?xml version="1.0" standalone="no"?>
<!DOCTYPE svg PUBLIC "-//W3C//DTD SVG 20010904//EN"
 "http://www.w3.org/TR/2001/REC-SVG-20010904/DTD/svg10.dtd">
<svg version="1.0" xmlns="http://www.w3.org/2000/svg"
 width="512.000000pt" height="512.000000pt" viewBox="0 0 512.000000 512.000000"
 preserveAspectRatio="xMidYMid meet">
<metadata>
Created by potrace 1.14, written by Peter Selinger 2001-2017
</metadata>
<g transform="translate(0.000000,512.000000) scale(0.100000,-0.100000)"
fill="#000000" stroke="none">
<path d="M2367 4955 c-1 -2 -36 -6 -76 -9 -41 -4 -77 -9 -80 -11 -4 -1 -28 -6
-56 -9 -89 -12 -248 -57 -348 -98 -89 -36 -255 -121 -267 -137 -3 -3 -30 -25
-60 -47 -153 -114 -283 -290 -361 -486 -34 -86 -71 -247 -64 -278 10 -46 64
-87 127 -95 29 -4 64 -8 78 -10 14 -2 52 -6 85 -10 33 -3 71 -8 85 -10 14 -2
61 -7 105 -11 44 -5 85 -9 90 -9 6 -1 44 -5 85 -10 41 -5 86 -8 99 -7 55 4 96
57 120 157 53 216 245 359 496 370 233 10 367 -83 421 -295 21 -85 24 -108 30
-287 6 -154 5 -163 -12 -164 -11 0 -26 -2 -34 -3 -13 -3 -74 -10 -190 -21 -58
-6 -153 -17 -170 -20 -8 -1 -42 -6 -75 -9 -75 -9 -355 -55 -365 -61 -4 -2 -22
-7 -41 -10 -98 -17 -270 -75 -389 -132 -52 -25 -97 -49 -100 -53 -3 -4 -16
-13 -30 -20 -46 -24 -144 -104 -209 -170 -168 -172 -272 -391 -306 -645 -17
-129 -11 -367 10 -445 2 -8 7 -28 9 -45 16 -91 77 -237 139 -332 145 -221 376
-359 667 -401 60 -8 320 -8 395 0 300 34 523 146 786 395 50 48 94 82 97 77 4
-6 41 -59 82 -119 47 -70 115 -151 186 -222 164 -163 173 -163 365 4 62 54
120 105 129 113 9 8 36 31 61 52 24 20 55 46 69 58 14 12 60 52 103 88 71 60
82 76 88 122 5 39 -17 93 -60 147 -165 206 -197 263 -226 408 -11 56 -14 215
-15 770 -1 682 -3 786 -15 910 -44 461 -256 755 -661 915 -189 75 -383 108
-637 107 -86 0 -158 -1 -160 -2z m509 -2232 c-5 -275 -18 -362 -75 -509 -39
-100 -132 -244 -200 -307 -100 -93 -224 -128 -359 -100 -120 25 -205 90 -261
202 -40 78 -52 135 -56 256 -7 287 116 495 360 606 116 52 313 91 500 97 l97
4 -6 -249z"/>
<path d="M4748 1315 c-2 -1 -41 -5 -88 -8 -173 -13 -314 -55 -433 -129 -95
-61 -86 -102 22 -93 36 3 73 8 81 10 28 7 214 18 303 17 123 -1 192 -18 224
-56 23 -27 24 -35 19 -99 -9 -105 -65 -299 -131 -452 -43 -100 -44 -135 -3
-135 74 1 240 235 311 440 59 168 83 360 53 417 -22 44 -101 70 -246 79 -41 3
-83 6 -92 8 -9 2 -18 3 -20 1z"/>
<path d="M10 1195 c-24 -29 -1 -61 107 -151 153 -128 407 -314 429 -314 3 0
24 -13 47 -29 111 -75 405 -219 608 -296 253 -97 547 -171 834 -210 22 -3 54
-7 70 -10 86 -13 213 -19 425 -19 209 -1 422 8 439 18 3 2 35 7 71 10 36 4 77
8 90 11 47 9 145 27 174 32 128 21 527 138 639 187 18 7 48 19 67 26 143 52
505 252 607 336 56 46 66 89 29 121 -37 32 -60 29 -178 -18 -105 -42 -382
-137 -421 -145 -12 -2 -33 -8 -47 -14 -14 -5 -99 -27 -190 -49 -166 -41 -184
-44 -275 -61 -27 -4 -63 -11 -80 -14 -144 -26 -324 -48 -515 -62 -187 -15
-724 -7 -818 11 -10 1 -46 6 -82 9 -36 4 -76 9 -90 11 -14 3 -45 7 -70 10
-139 16 -530 98 -670 140 -416 126 -748 262 -1059 433 -99 55 -121 61 -141 37z"/>
</g>
</svg>
